{
	"asset":{
		"generator":"Khronos glTF Blender I/O v4.4.56",
		"version":"2.0"
	},
	"scene":0,
	"scenes":[
		{
			"name":"Scene",
			"nodes":[
				0,
				1
			]
		}
	],
	"nodes":[
		{
			"mesh":0,
			"name":"Torus",
			"rotation":[
				0,
				0,
				-0.9999434947967529,
				0.010638827458024025
			],
			"scale":[
				1.4811720848083496,
				1.4811720848083496,
				1.4811720848083496
			],
			"translation":[
				0,
				0.8277639746665955,
				0
			]
		},
		{
			"mesh":1,
			"name":"Icing",
			"rotation":[
				0,
				0,
				-0.9999434947967529,
				0.010638827458024025
			],
			"scale":[
				1.4811720848083496,
				1.4811720848083496,
				1.4811720848083496
			],
			"translation":[
				0,
				0.8277639746665955,
				0
			]
		}
	],
	"meshes":[
		{
			"name":"Torus",
			"primitives":[
				{
					"attributes":{
						"POSITION":0,
						"NORMAL":1,
						"TEXCOORD_0":2
					},
					"indices":3
				}
			]
		},
		{
			"name":"Torus.003",
			"primitives":[
				{
					"attributes":{
						"POSITION":4,
						"NORMAL":5,
						"TEXCOORD_0":6
					},
					"indices":7
				}
			]
		}
	],
	"accessors":[
		{
			"bufferView":0,
			"componentType":5126,
			"count":713,
			"max":[
				1.6575063467025757,
				0.5443183183670044,
				1.6731646060943604
			],
			"min":[
				-1.7372634410858154,
				-0.6965805888175964,
				-1.585274577140808
			],
			"type":"VEC3"
		},
		{
			"bufferView":1,
			"componentType":5126,
			"count":713,
			"type":"VEC3"
		},
		{
			"bufferView":2,
			"componentType":5126,
			"count":713,
			"type":"VEC2"
		},
		{
			"bufferView":3,
			"componentType":5123,
			"count":3960,
			"type":"SCALAR"
		},
		{
			"bufferView":4,
			"componentType":5126,
			"count":1455,
			"max":[
				1.6565380096435547,
				0.5346768498420715,
				1.6721519231796265
			],
			"min":[
				-1.7349720001220703,
				-0.691621720790863,
				-1.5841097831726074
			],
			"type":"VEC3"
		},
		{
			"bufferView":5,
			"componentType":5126,
			"count":1455,
			"type":"VEC3"
		},
		{
			"bufferView":6,
			"componentType":5126,
			"count":1455,
			"type":"VEC2"
		},
		{
			"bufferView":7,
			"componentType":5123,
			"count":8190,
			"type":"SCALAR"
		}
	],
	"bufferViews":[
		{
			"buffer":0,
			"byteLength":8556,
			"byteOffset":0,
			"target":34962
		},
		{
			"buffer":0,
			"byteLength":8556,
			"byteOffset":8556,
			"target":34962
		},
		{
			"buffer":0,
			"byteLength":5704,
			"byteOffset":17112,
			"target":34962
		},
		{
			"buffer":0,
			"byteLength":7920,
			"byteOffset":22816,
			"target":34963
		},
		{
			"buffer":0,
			"byteLength":17460,
			"byteOffset":30736,
			"target":34962
		},
		{
			"buffer":0,
			"byteLength":17460,
			"byteOffset":48196,
			"target":34962
		},
		{
			"buffer":0,
			"byteLength":11640,
			"byteOffset":65656,
			"target":34962
		},
		{
			"buffer":0,
			"byteLength":16380,
			"byteOffset":77296,
			"target":34963
		}
	],
	"buffers":[
		{
			"byteLength":93676,
			"uri":"donut.bin"
		}
	]
}
